<svg width="1878" height="280" viewBox="0 0 1878 280" fill="none" xmlns="http://www.w3.org/2000/svg">
<path opacity="0.2" fill-rule="evenodd" clip-rule="evenodd" d="M0 159.306L39.5195 169.49C78.3333 179.673 156.667 199.663 235 169.49C313.333 139.317 391.667 58.9798 470 23.9033C548.333 -11.1733 626.667 -1.36697 705 13.7197C783.333 28.8064 861.667 48.7963 940 69.1634C1018.33 89.1532 1096.67 109.143 1175 99.3368C1253.33 89.1532 1331.67 48.7963 1410 69.1634C1488.33 89.1532 1566.67 169.49 1645 189.48C1723.33 209.847 1801.67 169.49 1841.19 149.5L1880 129.51V280H1841.19C1801.67 280 1723.33 280 1645 280C1566.67 280 1488.33 280 1410 280C1331.67 280 1253.33 280 1175 280C1096.67 280 1018.33 280 940 280C861.667 280 783.333 280 705 280C626.667 280 548.333 280 470 280C391.667 280 313.333 280 235 280C156.667 280 78.3333 280 39.5195 280H0V159.306Z" fill="#048FCE"/>
</svg>
